<svg xmlns="http://www.w3.org/2000/svg" width="186.46" height="35" viewBox="0 0 186.46 35"><rect class="svg__rect" x="0" y="0" width="0" height="35" fill="#63DE85"/><rect class="svg__rect" x="0" y="0" width="186.46" height="35" fill="#005384"/><path class="svg__text" d="" fill="#000000"/><path class="svg__text" d="M16.52 22L14.19 22L14.19 13.60L16.14 13.60L19.85 18.07L19.85 13.60L22.18 13.60L22.18 22L20.23 22L16.52 17.52L16.52 22ZM29.72 22L27.34 22L27.34 13.60L29.72 13.60L29.72 22ZM37.27 22L34.89 22L34.89 13.60L38.74 13.60Q39.88 13.60 40.72 13.98Q41.56 14.35 42.01 15.06Q42.47 15.76 42.47 16.71L42.47 16.71Q42.47 17.62 42.04 18.30Q41.62 18.98 40.82 19.36L40.82 19.36L42.64 22L40.09 22L38.57 19.77L37.27 19.77L37.27 22ZM37.27 15.47L37.27 17.93L38.59 17.93Q39.32 17.93 39.70 17.61Q40.07 17.29 40.07 16.71L40.07 16.71Q40.07 16.12 39.70 15.79Q39.32 15.47 38.59 15.47L38.59 15.47L37.27 15.47ZM48.68 22L46.25 22L49.96 13.60L52.30 13.60L56.02 22L53.55 22L52.89 20.37L49.34 20.37L48.68 22ZM51.11 15.93L50.03 18.61L52.19 18.61L51.11 15.93ZM59.09 20.93L59.09 20.93L60.39 19.40Q61.06 20.27 61.83 20.27L61.83 20.27Q61.84 20.27 61.84 20.27L61.84 20.27Q62.36 20.27 62.63 19.96Q62.90 19.65 62.90 19.05L62.90 19.05L62.90 15.44L60.00 15.44L60.00 13.60L65.25 13.60L65.25 18.91Q65.25 20.54 64.43 21.36Q63.61 22.17 62.01 22.17L62.01 22.17Q61.09 22.17 60.33 21.85Q59.57 21.53 59.09 20.93ZM71.76 22L69.33 22L73.04 13.60L75.38 13.60L79.10 22L76.63 22L75.97 20.37L72.42 20.37L71.76 22ZM74.19 15.93L73.11 18.61L75.27 18.61L74.19 15.93ZM85.58 22L83.25 22L83.25 13.60L85.21 13.60L88.92 18.07L88.92 13.60L91.24 13.60L91.24 22L89.29 22L85.58 17.52L85.58 22ZM107.35 22L103.38 22L103.38 13.60L107.35 13.60Q108.73 13.60 109.80 14.12Q110.87 14.63 111.46 15.58Q112.05 16.53 112.05 17.80L112.05 17.80Q112.05 19.07 111.46 20.02Q110.87 20.97 109.80 21.48Q108.73 22 107.35 22L107.35 22ZM105.76 15.50L105.76 20.10L107.26 20.10Q108.34 20.10 108.99 19.49Q109.64 18.88 109.64 17.80L109.64 17.80Q109.64 16.72 108.99 16.11Q108.34 15.50 107.26 15.50L107.26 15.50L105.76 15.50ZM119.15 22L116.77 22L116.77 13.60L119.15 13.60L119.15 16.76L122.39 16.76L122.39 13.60L124.77 13.60L124.77 22L122.39 22L122.39 18.72L119.15 18.72L119.15 22ZM131.35 22L128.92 22L132.63 13.60L134.97 13.60L138.69 22L136.22 22L135.56 20.37L132.01 20.37L131.35 22ZM133.78 15.93L132.70 18.61L134.86 18.61L133.78 15.93ZM145.20 22L142.84 22L142.84 13.60L145.20 13.60L145.20 17.09L148.45 13.60L151.06 13.60L147.64 17.32L151.24 22L148.48 22L146.08 18.95L145.20 19.90L145.20 22ZM156.77 22L154.34 22L158.05 13.60L160.40 13.60L164.11 22L161.64 22L160.98 20.37L157.43 20.37L156.77 22ZM159.21 15.93L158.12 18.61L160.29 18.61L159.21 15.93ZM174.65 22L168.27 22L168.27 13.60L170.64 13.60L170.64 20.11L174.65 20.11L174.65 22Z" fill="#FFFFFF" x="39"/></svg>